<?xml version="1.0" encoding="utf-8"?>
<!-- Generator: Adobe Illustrator 26.0.3, SVG Export Plug-In . SVG Version: 6.00 Build 0)  -->
<svg version="1.1" id="Слой_1" xmlns="http://www.w3.org/2000/svg" xmlns:xlink="http://www.w3.org/1999/xlink" x="0px" y="0px"
	 viewBox="0 0 36.4 34" style="enable-background:new 0 0 36.4 34;" xml:space="preserve">
<style type="text/css">
	.st0{fill:#E30B13;}
	.st1{fill:#CE080F;}
</style>
<path class="st0" d="M18,33h16v-2.6h-7.3C24.1,32.1,21.1,33,18,33z M18,27.2c-1.8,0-3.2-1.4-3.2-3.2c0-1.8,1.4-3.2,3.2-3.2v-7.4
	c-1.8,0-3.2-1.4-3.2-3.2c0-1.8,1.4-3.2,3.2-3.2V1C9.2,1,2,8.2,2,17s7.2,16,16,16V27.2z M11.1,20.2c-1.8,0-3.2-1.4-3.2-3.2
	c0-1.8,1.4-3.2,3.2-3.2c1.8,0,3.2,1.4,3.2,3.2C14.3,18.8,12.8,20.2,11.1,20.2L11.1,20.2z"/>
<path class="st1" d="M34,17c0-8.8-7.2-16-16-16v5.8c1.8,0,3.2,1.4,3.2,3.2c0,1.8-1.4,3.2-3.2,3.2v7.4c1.8,0,3.2,1.4,3.2,3.2
	c0,1.8-1.4,3.2-3.2,3.2V33c3.2,0,6.2-1,8.7-2.6C31.1,27.6,34,22.6,34,17z M25,13.8c1.8,0,3.2,1.4,3.2,3.2c0,1.8-1.4,3.2-3.2,3.2
	c-1.8,0-3.2-1.4-3.2-3.2C21.7,15.2,23.2,13.8,25,13.8L25,13.8z"/>
</svg>
